<svg width="45" height="45" viewBox="0 0 45 45" fill="none" xmlns="http://www.w3.org/2000/svg">
<rect x="1.44586" y="1.14738" width="43" height="43" rx="6.5" fill="#6363DB"/>
<rect x="1.44586" y="1.14738" width="43" height="43" rx="6.5" stroke="#4F4FB9"/>
<path d="M26.4859 30.1474L25.4459 26.7474H20.2459L19.2059 30.1474H15.9459L20.9859 15.8074H24.6859L29.7459 30.1474H26.4859ZM23.6859 20.8874C23.6192 20.6607 23.5325 20.3741 23.4259 20.0274C23.3192 19.6807 23.2125 19.3274 23.1059 18.9674C22.9992 18.6074 22.9125 18.2941 22.8459 18.0274C22.7792 18.2941 22.6859 18.6274 22.5659 19.0274C22.4592 19.4141 22.3525 19.7874 22.2459 20.1474C22.1525 20.4941 22.0792 20.7407 22.0259 20.8874L21.0059 24.2074H24.7259L23.6859 20.8874Z" fill="white"/>
</svg>
